<?xml version="1.0" encoding="utf-8"?>
<!-- Generator: Adobe Illustrator 22.0.0, SVG Export Plug-In . SVG Version: 6.00 Build 0)  -->
<svg version="1.2" baseProfile="tiny" id="图层_1"
	 xmlns="http://www.w3.org/2000/svg" xmlns:xlink="http://www.w3.org/1999/xlink" x="0px" y="0px" viewBox="0 0 108 17.4"
	 xml:space="preserve">
<g>
	<path fill="#FFFFFF" d="M11.1,13.4V6c0-0.7,0-1.5,0.1-2.6h-0.1C11,4.2,10.8,4.8,10.7,5l-3,8.3H5.7l-3-8.3C2.6,4.9,2.5,4.4,2.3,3.5
		H2.2c0.1,1,0.1,2,0.1,3.1v6.8H0V1.3h3.8l2.6,7.3c0.2,0.6,0.4,1.2,0.4,1.7h0.1C7,9.6,7.2,9,7.4,8.6L10,1.3h3.6v12.1H11.1z"/>
	<path fill="#FFFFFF" d="M23.9,9.8h-5.7c0.1,1.3,0.9,2,2.4,2c1,0,1.8-0.2,2.5-0.7v1.9c-0.8,0.4-1.8,0.7-3.1,0.7
		c-1.4,0-2.4-0.4-3.2-1.2c-0.8-0.8-1.1-1.9-1.1-3.2c0-1.4,0.4-2.5,1.2-3.4c0.8-0.9,1.8-1.3,3.1-1.3c1.2,0,2.2,0.4,2.9,1.1
		c0.7,0.7,1,1.8,1,3.1V9.8z M21.5,8.2c0-1.3-0.5-1.9-1.6-1.9c-0.4,0-0.8,0.2-1.1,0.5c-0.3,0.4-0.5,0.8-0.6,1.4H21.5z"/>
	<path fill="#FFFFFF" d="M33.9,12.4c0,1.6-0.5,2.8-1.4,3.7s-2.2,1.3-3.9,1.3c-1.2,0-2.1-0.2-2.8-0.5v-2.2c0.9,0.5,1.8,0.8,2.7,0.8
		c0.9,0,1.6-0.2,2.1-0.7c0.5-0.5,0.8-1.2,0.8-2v-0.7h0c-0.6,1-1.5,1.5-2.7,1.5c-1.1,0-2-0.4-2.6-1.2c-0.7-0.8-1-1.8-1-3.1
		c0-1.5,0.4-2.6,1.1-3.5c0.7-0.9,1.7-1.3,2.8-1.3c1.1,0,1.9,0.4,2.4,1.2h0v-1h2.5V12.4z M31.4,8.5c0-0.6-0.2-1.1-0.5-1.4
		c-0.3-0.4-0.8-0.6-1.3-0.6c-0.6,0-1.1,0.2-1.5,0.7c-0.4,0.5-0.5,1.2-0.5,2c0,0.8,0.2,1.4,0.5,1.8c0.3,0.4,0.8,0.7,1.4,0.7
		c0.6,0,1-0.2,1.4-0.7c0.4-0.4,0.5-1,0.5-1.7V8.5z"/>
	<path fill="#FFFFFF" d="M36.4,5.3c0.4-0.2,0.9-0.4,1.6-0.5c0.7-0.1,1.2-0.2,1.7-0.2c2.4,0,3.6,1.2,3.6,3.6v5.2h-2.4v-1.3h0
		c-0.6,1-1.5,1.5-2.6,1.5c-0.8,0-1.5-0.2-2-0.7c-0.5-0.5-0.7-1.1-0.7-1.9c0-1.7,1-2.6,3-2.9l2.4-0.3c0-1-0.5-1.5-1.6-1.5
		c-1,0-2,0.3-2.9,0.9V5.3z M39.2,9.5c-0.9,0.1-1.4,0.5-1.4,1.2c0,0.3,0.1,0.6,0.3,0.8c0.2,0.2,0.5,0.3,0.9,0.3
		c0.5,0,0.9-0.2,1.3-0.5c0.3-0.4,0.5-0.8,0.5-1.4V9.2L39.2,9.5z"/>
	<path fill="#FFFFFF" d="M44.7,2.8h1.7V0.1h2v2.8h1.5v2h-1.5v2.4l1.4-0.3c-0.1,0.9-0.1,1.6-0.1,2l-1.3,0.3v4.1c0,0.5-0.1,1-0.4,1.4
		s-1.2,0.6-2.8,0.6c-0.1-0.5-0.3-1.2-0.5-2.1c0.3,0,0.6,0,0.9,0c0.4,0,0.6-0.1,0.7-0.2c0.1-0.1,0.2-0.3,0.2-0.6V9.8l-1.7,0.4L44.5,8
		l1.9-0.4V4.8h-1.7V2.8z M59.1,6.5v1.9c-0.7,1.4-1.5,2.6-2.6,3.6c1.1,0.6,2.2,1,3.5,1.4c-0.7,0.8-1.2,1.5-1.5,2.1
		c-1.4-0.5-2.7-1.2-3.8-2c-1.3,0.9-2.7,1.6-4.4,2.1c-0.3-0.5-0.8-1.1-1.4-2c1.6-0.4,2.9-0.9,4-1.6c-0.8-0.8-1.5-1.6-2.2-2.5l1.7-1
		c0.6,0.9,1.4,1.7,2.3,2.3c0.8-0.7,1.5-1.5,2-2.4h-6.3V6.5H59.1z M59.9,3.7c-0.2,0.8-0.3,1.5-0.4,1.9l-2,0c-0.6,0-1-0.1-1.3-0.4
		C56.1,5,55.9,4.5,55.9,4V2.5h-2.5c0,1.7-0.6,3-2,3.9c-0.5-0.4-1.1-0.9-1.7-1.3c0.7-0.4,1.1-0.9,1.4-1.4c0.3-0.5,0.4-1.5,0.3-3H58V3
		c0,0.4,0.1,0.6,0.4,0.7C58.6,3.7,59.2,3.7,59.9,3.7z"/>
	<path fill="#FFFFFF" d="M61.4,7.6l-0.9-2.1C61.8,4.8,63,4.1,64,3.4l0.9,2C63.5,6.2,62.3,7,61.4,7.6z M67.3,9.9h2.3
		c-0.1,0.6-0.2,1.2-0.4,1.7c1.7,0.5,3.9,1.1,6.5,1.9l-1.1,2c-1.4-0.5-3.5-1.3-6.4-2.2c-1,1.2-3.2,1.9-6.5,2.2
		c-0.3-0.6-0.6-1.3-1.1-2.1c2-0.1,3.6-0.4,4.8-0.8C66.5,12.1,67.2,11.2,67.3,9.9z M60.8,1.6L62.1,0c1.1,0.7,1.9,1.3,2.5,1.7
		l-1.4,1.8C62.4,2.9,61.7,2.2,60.8,1.6z M75.6,1.1v1.5l-1,1.9l-1.6-0.6l0.5-1h-2.3C71.1,3,71,3.2,71,3.4c1,1.4,2.6,2.2,5,2.4
		c-0.4,0.8-0.7,1.4-0.9,1.9c-2.4-0.3-4-1.1-4.9-2.5c-0.9,1.3-2.3,2.1-4.3,2.5h8.3V12H72V9.5h-7.5v2.7h-2.2V7.6h2.8l-1-1.6
		c2.9-0.4,4.5-1.4,4.8-3.1h-1.7c-0.4,0.6-0.8,1.2-1.2,1.7c-0.4-0.3-1-0.7-1.7-1.1c1-1,1.7-2.2,2.2-3.5l2.2,0.1
		c-0.1,0.3-0.3,0.6-0.4,0.9H75.6z"/>
	<path fill="#FFFFFF" d="M82,10.3c0.1,0.9,0.2,1.7,0.3,2.3c-1.6,1-2.7,1.9-3.4,2.7l-1.2-1.5c0.3-0.3,0.4-0.8,0.4-1.3V7.3h-1.6v-2
		h3.7v6.4C81.1,11.1,81.6,10.6,82,10.3z M79.2,0c0.7,1,1.4,1.9,2,2.9l-2,1.2c-0.5-0.9-1.1-1.9-1.9-3.1L79.2,0z M81.1,8.2h4.4V2.8
		h-3.6v-2h9.6v2h-3.7v5.3H92v2h-4.1v5.3h-2.3v-5.3h-4.4V8.2z M83.6,3.2l1.3,3.7l-2,0.6C82.5,6.3,82,5,81.6,3.8L83.6,3.2z M89.9,3.1
		l1.9,0.7l-1.7,3.8l-1.8-0.8C88.8,5.8,89.3,4.6,89.9,3.1z"/>
	<path fill="#FFFFFF" d="M94.7,4.9c0.4,0,0.8,0,1.3,0c0.3-0.6,0.7-1.2,1.1-2l1.7,1c-1.3,2.2-2.4,3.9-3.3,5c0.9-0.1,1.7-0.2,2.4-0.3
		c-0.1,0.6-0.1,1.2-0.2,1.9c-2,0.2-3.5,0.4-4.6,0.7l-0.5-1.8c0.6-0.5,1.3-1.4,2.1-2.6c-0.8,0.1-1.4,0.1-1.8,0.2L92.4,5
		c0.8-1,1.7-2.7,2.6-5l2,0.8C96.1,2.5,95.3,3.9,94.7,4.9z M92.5,12.4c1.7-0.2,3.4-0.5,5-0.8c0,0.4-0.1,0.9-0.1,1.3
		c1-1.9,1.6-4.4,1.8-7.5c0-0.5,0-1.3,0-2.5h-1.1V0.9h8.4v1.8l-1.2,2.5h2.2V7c-0.4,1.8-1.1,3.3-2,4.7c0.8,0.7,1.7,1.3,2.7,1.7
		c-0.6,0.8-1.1,1.5-1.4,2c-1-0.6-1.9-1.3-2.7-2.1c-0.9,0.9-2,1.6-3.3,2.3c-0.4-0.7-0.9-1.3-1.3-1.9c1.3-0.6,2.3-1.3,3.2-2.1
		c-0.7-1.1-1.3-2.3-1.8-3.7c-0.3,3.3-1.3,5.8-2.8,7.6c-0.4-0.7-0.9-1.2-1.3-1.7l-3.8,0.7L92.5,12.4z M101.2,4
		c0.8,2.6,1.7,4.7,2.7,6.1c0.6-0.9,1.1-1.9,1.3-3H103V5.2l1.1-2.3h-2.8C101.2,3.2,101.2,3.6,101.2,4z"/>
</g>
</svg>
