<?xml version="1.0" encoding="utf-8"?>
<!-- Generator: Adobe Illustrator 22.0.0, SVG Export Plug-In . SVG Version: 6.00 Build 0)  -->
<svg version="1.2" baseProfile="tiny" id="图层_1"
	 xmlns="http://www.w3.org/2000/svg" xmlns:xlink="http://www.w3.org/1999/xlink" x="0px" y="0px" viewBox="0 0 117.7 17.4"
	 xml:space="preserve">
<g>
	<path fill="#FFFFFF" d="M11.1,13.4V6c0-0.7,0-1.5,0.1-2.6h-0.1C11,4.2,10.8,4.8,10.7,5l-3,8.3H5.7l-3-8.3C2.6,4.9,2.5,4.4,2.3,3.5
		H2.2c0.1,1,0.1,2,0.1,3.1v6.8H0V1.3h3.8l2.6,7.3c0.2,0.6,0.4,1.2,0.4,1.7h0.1C7,9.6,7.2,9,7.4,8.6L10,1.3h3.6v12.1H11.1z"/>
	<path fill="#FFFFFF" d="M23.9,9.8h-5.7c0.1,1.3,0.9,2,2.4,2c1,0,1.8-0.2,2.5-0.7v1.9c-0.8,0.4-1.8,0.7-3.1,0.7
		c-1.4,0-2.4-0.4-3.2-1.2c-0.8-0.8-1.1-1.9-1.1-3.2c0-1.4,0.4-2.5,1.2-3.4c0.8-0.9,1.8-1.3,3.1-1.3c1.2,0,2.2,0.4,2.9,1.1
		c0.7,0.7,1,1.8,1,3.1V9.8z M21.5,8.2c0-1.3-0.5-1.9-1.6-1.9c-0.4,0-0.8,0.2-1.1,0.5c-0.3,0.4-0.5,0.8-0.6,1.4H21.5z"/>
	<path fill="#FFFFFF" d="M33.9,12.4c0,1.6-0.5,2.8-1.4,3.7s-2.2,1.3-3.9,1.3c-1.2,0-2.1-0.2-2.8-0.5v-2.2c0.9,0.5,1.8,0.8,2.7,0.8
		c0.9,0,1.6-0.2,2.1-0.7c0.5-0.5,0.8-1.2,0.8-2v-0.7h0c-0.6,1-1.5,1.5-2.7,1.5c-1.1,0-2-0.4-2.6-1.2c-0.7-0.8-1-1.8-1-3.1
		c0-1.5,0.4-2.6,1.1-3.5c0.7-0.9,1.7-1.3,2.8-1.3c1.1,0,1.9,0.4,2.4,1.2h0v-1h2.5V12.4z M31.4,8.5c0-0.6-0.2-1.1-0.5-1.4
		c-0.3-0.4-0.8-0.6-1.3-0.6c-0.6,0-1.1,0.2-1.5,0.7c-0.4,0.5-0.5,1.2-0.5,2c0,0.8,0.2,1.4,0.5,1.8c0.3,0.4,0.8,0.7,1.4,0.7
		c0.6,0,1-0.2,1.4-0.7c0.4-0.4,0.5-1,0.5-1.7V8.5z"/>
	<path fill="#FFFFFF" d="M36.4,5.3c0.4-0.2,0.9-0.4,1.6-0.5c0.7-0.1,1.2-0.2,1.7-0.2c2.4,0,3.6,1.2,3.6,3.6v5.2h-2.4v-1.3h0
		c-0.6,1-1.5,1.5-2.6,1.5c-0.8,0-1.5-0.2-2-0.7c-0.5-0.5-0.7-1.1-0.7-1.9c0-1.7,1-2.6,3-2.9l2.4-0.3c0-1-0.5-1.5-1.6-1.5
		c-1,0-2,0.3-2.9,0.9V5.3z M39.2,9.5c-0.9,0.1-1.4,0.5-1.4,1.2c0,0.3,0.1,0.6,0.3,0.8c0.2,0.2,0.5,0.3,0.9,0.3
		c0.5,0,0.9-0.2,1.3-0.5c0.3-0.4,0.5-0.8,0.5-1.4V9.2L39.2,9.5z"/>
	<path fill="#FFFFFF" d="M44.7,2.8h1.7V0.1h2v2.8h1.5v2h-1.5v2.4l1.4-0.3c-0.1,0.9-0.1,1.6-0.1,2l-1.3,0.3v4.1c0,0.5-0.1,1-0.4,1.4
		s-1.2,0.6-2.8,0.6c-0.1-0.5-0.3-1.2-0.5-2.1c0.3,0,0.6,0,0.9,0c0.4,0,0.6-0.1,0.7-0.2c0.1-0.1,0.2-0.3,0.2-0.6V9.8l-1.7,0.4L44.5,8
		l1.9-0.4V4.8h-1.7V2.8z M59.1,6.5v1.9c-0.7,1.4-1.5,2.6-2.6,3.6c1.1,0.6,2.2,1,3.5,1.4c-0.7,0.8-1.2,1.5-1.5,2.1
		c-1.4-0.5-2.7-1.2-3.8-2c-1.3,0.9-2.7,1.6-4.4,2.1c-0.3-0.5-0.8-1.1-1.4-2c1.6-0.4,2.9-0.9,4-1.6c-0.8-0.8-1.5-1.6-2.2-2.5l1.7-1
		c0.6,0.9,1.4,1.7,2.3,2.3c0.8-0.7,1.5-1.5,2-2.4h-6.3V6.5H59.1z M59.9,3.7c-0.2,0.8-0.3,1.5-0.4,1.9l-2,0c-0.6,0-1-0.1-1.3-0.4
		C56.1,5,55.9,4.5,55.9,4V2.5h-2.5c0,1.7-0.6,3-2,3.9c-0.5-0.4-1.1-0.9-1.7-1.3c0.7-0.4,1.1-0.9,1.4-1.4c0.3-0.5,0.4-1.5,0.3-3H58V3
		c0,0.4,0.1,0.6,0.4,0.7C58.6,3.7,59.2,3.7,59.9,3.7z"/>
	<path fill="#FFFFFF" d="M61.4,7.6l-0.9-2.1C61.8,4.8,63,4.1,64,3.4l0.9,2C63.5,6.2,62.3,7,61.4,7.6z M67.3,9.9h2.3
		c-0.1,0.6-0.2,1.2-0.4,1.7c1.7,0.5,3.9,1.1,6.5,1.9l-1.1,2c-1.4-0.5-3.5-1.3-6.4-2.2c-1,1.2-3.2,1.9-6.5,2.2
		c-0.3-0.6-0.6-1.3-1.1-2.1c2-0.1,3.6-0.4,4.8-0.8C66.5,12.1,67.2,11.2,67.3,9.9z M60.8,1.6L62.1,0c1.1,0.7,1.9,1.3,2.5,1.7
		l-1.4,1.8C62.4,2.9,61.7,2.2,60.8,1.6z M75.6,1.1v1.5l-1,1.9l-1.6-0.6l0.5-1h-2.3C71.1,3,71,3.2,71,3.4c1,1.4,2.6,2.2,5,2.4
		c-0.4,0.8-0.7,1.4-0.9,1.9c-2.4-0.3-4-1.1-4.9-2.5c-0.9,1.3-2.3,2.1-4.3,2.5h8.3V12H72V9.5h-7.5v2.7h-2.2V7.6h2.8l-1-1.6
		c2.9-0.4,4.5-1.4,4.8-3.1h-1.7c-0.4,0.6-0.8,1.2-1.2,1.7c-0.4-0.3-1-0.7-1.7-1.1c1-1,1.7-2.2,2.2-3.5l2.2,0.1
		c-0.1,0.3-0.3,0.6-0.4,0.9H75.6z"/>
	<path fill="#FFFFFF" d="M76.5,2.6h1.7V0.1h2v2.5h1.5v1.9h-1.5V7l1.5-0.4c0,0.8,0,1.5,0,2.1c-0.2,0-0.7,0.2-1.5,0.4v4.3
		c0,0.6-0.1,1-0.3,1.3c-0.2,0.3-0.6,0.5-1,0.5c-0.4,0-1.1,0.1-1.9,0.1c-0.1-0.6-0.2-1.3-0.4-2c0.6,0,1.1,0,1.3,0s0.3-0.2,0.3-0.6
		V9.7l-1.6,0.5l-0.2-2.3c0.6-0.1,1.2-0.3,1.8-0.4V4.6h-1.7V2.6z M90,2.7c0.6,0.3,1.3,0.6,1.9,0.8c-0.3,1.4-0.6,2.2-1,2.5
		c-0.4,0.3-1,0.4-1.6,0.4h-4.8c-1.5,0-2.3-0.8-2.3-2.4V0.1h2.1v1.7C86.6,1.5,88.8,1,91,0.4l0.7,1.9c-2.2,0.5-4.7,0.9-7.5,1.2v0.1
		c0,0.6,0.3,0.9,1,0.9h3.5c0.5,0,0.8-0.2,0.9-0.5C89.9,3.8,90,3.3,90,2.7z M82.4,15.5V7.3h8.9v8.1h-2.1v-0.8h-4.8v0.8H82.4z
		 M89.2,9.1h-4.8v1h4.8V9.1z M84.5,12.9h4.8v-1h-4.8V12.9z"/>
	<path fill="#FFFFFF" d="M92.8,3.1h1.2c-0.3-0.6-0.6-1.2-1.1-1.8l1.4-0.9c0.3,0.4,0.8,1,1.3,1.8l-1.4,0.8H96V0.1h2v3.1h1.6l-1.3-0.8
		c0.5-0.6,1-1.3,1.3-1.9l1.5,0.9c-0.3,0.6-0.8,1.2-1.3,1.8h0.9v1.6H98v1.1l0.5-0.7c0.7,0.3,1.3,0.7,1.9,1c0.9-1.6,1.6-3.6,2.2-6.1
		l2.1,0.2c-0.2,0.8-0.4,1.6-0.7,2.3h3.9v1.9h-0.6c-0.2,2.8-0.8,5-1.8,6.8c0.7,0.8,1.5,1.4,2.5,2c-0.4,0.4-0.8,1.1-1.4,2.1
		c-0.9-0.6-1.7-1.3-2.4-2.2c-0.9,1-1.9,1.8-3,2.5c-0.4-0.6-0.9-1.2-1.4-1.7l-0.6,0.9c-0.6-0.4-1.3-0.7-2-1.1
		c-1.1,0.8-2.5,1.3-4.1,1.6c-0.2-0.6-0.5-1.2-0.8-1.9c1.1-0.1,2-0.3,2.9-0.7c-0.7-0.3-1.5-0.6-2.3-1c0.4-0.5,0.7-1,1-1.5h-1.3V8.6
		h2.1c0.2-0.4,0.3-0.8,0.4-1.2L96,7.5V6c-0.8,0.8-1.7,1.6-2.9,2.3c-0.2-0.7-0.5-1.3-0.7-1.9c1-0.4,2-0.9,2.8-1.6h-2.3V3.1z M95.5,11
		l1.6,0.6c0.5-0.4,0.9-0.9,1.2-1.4H96L95.5,11z M98,7.8h-0.8c-0.1,0.3-0.3,0.5-0.4,0.8h3.6v1.5c-0.4,0.8-0.9,1.6-1.5,2.3l1.6,0.6
		l-0.3,0.5c1.2-0.6,2.1-1.4,2.9-2.3c-0.5-1-0.9-2.2-1.2-3.5c-0.2,0.3-0.4,0.6-0.6,0.9c-0.2-0.4-0.5-0.8-0.8-1.3L100.1,8
		c-0.6-0.4-1.3-0.9-2.1-1.3V7.8z M103.2,4.9c0.2,1.7,0.6,3.2,1.1,4.4c0.6-1.4,1-3,1.1-4.8h-2C103.3,4.6,103.3,4.7,103.2,4.9z"/>
	<path fill="#FFFFFF" d="M116.2,4.6c0.4,0,0.7,0.1,1,0.4c0.3,0.3,0.4,0.6,0.4,0.9c0,0.4-0.1,0.7-0.4,0.9c-0.3,0.3-0.6,0.4-1,0.4
		c-0.4,0-0.7-0.1-1-0.4c-0.3-0.3-0.4-0.6-0.4-0.9c0-0.4,0.1-0.7,0.4-0.9C115.5,4.7,115.8,4.6,116.2,4.6z M116.2,11
		c0.4,0,0.7,0.1,1,0.4c0.3,0.3,0.4,0.6,0.4,0.9c0,0.4-0.1,0.7-0.4,0.9s-0.6,0.4-1,0.4s-0.7-0.1-1-0.4s-0.4-0.6-0.4-0.9
		c0-0.4,0.1-0.7,0.4-0.9C115.5,11.1,115.8,11,116.2,11z"/>
</g>
</svg>
